<svg xmlns="http://www.w3.org/2000/svg" version="1.1" xmlns:xlink="http://www.w3.org/1999/xlink" xmlns:svgjs="http://svgjs.com/svgjs" width="1000" height="1000"><g transform="matrix(1.953125,0,0,1.953125,-0.44871095195412636,-0.025236893445253372)"><svg xmlns="http://www.w3.org/2000/svg" version="1.1" xmlns:xlink="http://www.w3.org/1999/xlink" xmlns:svgjs="http://svgjs.com/svgjs" width="512" height="512"><svg xmlns="http://www.w3.org/2000/svg" viewBox="0 0 512 512">

<path fill="#cf8d78" stroke="#cf8d78" d="M123 .681C46.538 8.555 8.941 45.794 1.018 121.5c-2.061 19.689-.906 269.289 1.306 282.204 11.363 66.353 48.625 99.895 119.176 107.278 19.689 2.061 269.289.906 282.204-1.306 64.97-11.126 100.952-50.165 106.877-115.954.385-4.278 1.087-8.017 1.559-8.309.473-.292.86-59.031.86-130.531 0-86.412-.335-129.793-1-129.382-.597.369-1-.864-1-3.063 0-13.971-6.673-40.837-13.893-55.937C478.832 28.279 446.831 7.957 394.77 1.512 383.503.117 135.828-.641 123 .681M.485 256c0 71.775.119 101.137.265 65.25.145-35.888.145-94.613 0-130.5C.604 154.862.485 184.225.485 256" fill-rule="evenodd"></path>

<path fill="#bcbcbc" stroke="#bcbcbc" d="M127.098 1.101C47.455 5.904 6.034 48.336.989 130.288-.29 151.059-.247 361.11 1.041 382.361c5.003 82.591 46.136 123.534 129.247 128.65 20.771 1.279 230.822 1.236 252.073-.052 81.263-4.923 124.629-47.58 128.341-126.244.332-7.032.984-13.021 1.451-13.309.466-.288.847-52.724.847-116.524 0-63.8-.381-115.764-.847-115.476-.466.288-1.12-5.423-1.453-12.691C507.119 48.588 463.447 6.021 381.712.989 363.381-.14 146.087-.044 127.098 1.101M.484 256c0 64.075.119 90.288.266 58.25.146-32.037.146-84.462 0-116.5C.603 165.713.484 191.925.484 256" fill-rule="evenodd"></path>

<path fill="#c0b9b7" stroke="#c0b9b7" d="M94.286 189.451c-9.045 2.826-18.311 10.375-23.103 18.818-5.089 8.97-5.221 10.672-4.943 63.77l.26 49.461h27l.5-49.731.5-49.732 3.135-3.134c2.713-2.713 3.837-3.134 8.365-3.134 4.528 0 5.652.421 8.365 3.134l3.135 3.134.5 49.732.5 49.731h27l.5-49.045c.454-44.511.662-49.292 2.25-51.715 4.593-7.007 15.676-6.912 20.493.175 1.599 2.352 1.802 6.997 2.257 51.585l.5 49h26v-104l-3.082-6.503c-11.05-23.317-38.537-30.029-60.552-14.785-1.308.906-2.592.496-6.454-2.063-8.897-5.892-22.934-7.883-33.126-4.698m292.214.031c-48.852 12.319-68.998 68.1-39.012 108.018 15.814 21.051 45.17 31.468 70.534 25.028 7.539-1.914 21.189-8.443 25.39-12.145l2.912-2.565-1.839-3.159c-1.011-1.738-4.266-7.104-7.233-11.926l-5.394-8.767-4.043 3.46c-19.985 17.107-51.672 9.986-63.122-14.185-4.743-10.013-4.739-24.642.009-34.287 11.814-23.997 42.599-31.059 62.895-14.428l4.257 3.488 1.906-2.757c1.049-1.516 4.308-6.771 7.243-11.676l5.336-8.92-3.809-3.197c-13.113-11.009-38.424-16.422-56.03-11.982M220.243 255.75l.257 65.75h27l.279-13.25.279-13.25h17.366c20.036 0 26.118-1.314 36.148-7.81 38.008-24.614 30.297-81.347-12.952-95.294-5.261-1.696-9.187-1.896-37.257-1.896h-31.377l.257 65.75M248 242.5V268l15.25-.01c13.954-.009 15.675-.211 20.25-2.377 20.459-9.689 19.681-38.79-1.247-46.619-4.42-1.654-7.792-1.994-19.791-1.994H248v25.5" fill-rule="evenodd"></path>

<path fill="#e34c1c" stroke="#e34c1c" d="M98.78 188.98c-11.747 2.104-22.635 10.445-28.339 21.712L67.5 216.5l-.284 52.25-.284 52.25H93v-48.05c0-53.03-.106-52.085 6.299-55.99 6.228-3.798 14.845-1.45 18.152 4.946 1.335 2.582 1.549 9.62 1.549 51.044V321h26l.022-47.25c.021-44.254.142-47.515 1.921-51.434 3.644-8.025 13.253-9.913 19.822-3.893l3.735 3.422.277 49.578.277 49.577H198v-47.951c0-31.694-.381-49.747-1.124-53.25-5.906-27.832-37.591-40.366-61.068-24.157l-3.691 2.549-3.499-2.669c-7.321-5.584-19.848-8.33-29.838-6.542m292.963-.033c-46.392 6.372-71.94 58.837-48.994 100.615 18.664 33.983 66.169 44.882 97.58 22.389l5.595-4.006-5.553-9.223c-3.053-5.072-6.209-10.254-7.013-11.515l-1.461-2.294-3.801 3.011c-35.216 27.891-83.914-11.714-62.895-51.15 12.139-22.775 44.11-29.039 62.663-12.278l3.774 3.409 6.681-10.974c7.961-13.078 7.907-12.611 1.929-16.597-14.441-9.63-31.738-13.691-48.505-11.387M221 255.425V321h26v-26h15.951c18.385 0 23.819-.899 33.658-5.567 36.933-17.522 38.775-71.043 3.166-91.975-11.04-6.49-13.003-6.788-47.525-7.219l-31.25-.39v65.576m26.233-12.675.267 25.75 11.5.297c19.277.498 28.362-2.161 34.389-10.063 10.584-13.876 5.925-32.658-9.889-39.867-3.339-1.522-6.686-1.827-20.267-1.845L246.966 217l.267 25.75" fill-rule="evenodd"></path>

</svg></svg></g></svg>